<mxfile host="app.diagrams.net" agent="Mozilla/5.0 (Windows NT 10.0; Win64; x64; rv:142.0) Gecko/20100101 Firefox/142.0" version="28.2.0">
  <diagram name="Page-1" id="2YBvvXClWsGukQMizWep">
    <mxGraphModel dx="4616" dy="2598" grid="1" gridSize="10" guides="1" tooltips="1" connect="1" arrows="1" fold="1" page="1" pageScale="1" pageWidth="1169" pageHeight="827" math="0" shadow="0">
      <root>
        <mxCell id="0" />
        <mxCell id="1" parent="0" />
        <mxCell id="JXOqe9_d9sMP_DMaJgzB-192" value="" style="endArrow=none;dashed=1;html=1;rounded=0;" edge="1" parent="1">
          <mxGeometry width="50" height="50" relative="1" as="geometry">
            <mxPoint x="279.90999999999997" y="2349.9964705882353" as="sourcePoint" />
            <mxPoint x="280" y="2248.67" as="targetPoint" />
          </mxGeometry>
        </mxCell>
        <mxCell id="JXOqe9_d9sMP_DMaJgzB-191" value="" style="endArrow=none;dashed=1;html=1;rounded=0;" edge="1" parent="1">
          <mxGeometry width="50" height="50" relative="1" as="geometry">
            <mxPoint x="439.81" y="2351.326470588235" as="sourcePoint" />
            <mxPoint x="439.90000000000003" y="2250" as="targetPoint" />
          </mxGeometry>
        </mxCell>
        <mxCell id="JXOqe9_d9sMP_DMaJgzB-5" value="&lt;div&gt;BotFactory&lt;/div&gt;" style="shape=umlLifeline;perimeter=lifelinePerimeter;whiteSpace=wrap;html=1;container=0;dropTarget=0;collapsible=0;recursiveResize=0;outlineConnect=0;portConstraint=eastwest;newEdgeStyle={&quot;edgeStyle&quot;:&quot;elbowEdgeStyle&quot;,&quot;elbow&quot;:&quot;vertical&quot;,&quot;curved&quot;:0,&quot;rounded&quot;:0};" vertex="1" parent="1">
          <mxGeometry x="720" y="230" width="80" height="2120" as="geometry" />
        </mxCell>
        <mxCell id="JXOqe9_d9sMP_DMaJgzB-18" value="TUI" style="shape=umlLifeline;perimeter=lifelinePerimeter;whiteSpace=wrap;html=1;container=0;dropTarget=0;collapsible=0;recursiveResize=0;outlineConnect=0;portConstraint=eastwest;newEdgeStyle={&quot;edgeStyle&quot;:&quot;elbowEdgeStyle&quot;,&quot;elbow&quot;:&quot;vertical&quot;,&quot;curved&quot;:0,&quot;rounded&quot;:0};" vertex="1" parent="1">
          <mxGeometry x="240" y="250" width="80" height="795" as="geometry" />
        </mxCell>
        <mxCell id="aM9ryv3xv72pqoxQDRHE-1" value="&lt;div&gt;&lt;font style=&quot;font-size: 11px;&quot;&gt;ChatController&lt;/font&gt;&lt;/div&gt;" style="shape=umlLifeline;perimeter=lifelinePerimeter;whiteSpace=wrap;html=1;container=0;dropTarget=0;collapsible=0;recursiveResize=0;outlineConnect=0;portConstraint=eastwest;newEdgeStyle={&quot;edgeStyle&quot;:&quot;elbowEdgeStyle&quot;,&quot;elbow&quot;:&quot;vertical&quot;,&quot;curved&quot;:0,&quot;rounded&quot;:0};movable=1;resizable=1;rotatable=1;deletable=1;editable=1;locked=0;connectable=1;" parent="1" vertex="1">
          <mxGeometry x="400" y="140" width="80" height="1356" as="geometry" />
        </mxCell>
        <mxCell id="aM9ryv3xv72pqoxQDRHE-5" value="&lt;div&gt;&lt;font style=&quot;font-size: 11px;&quot;&gt;BotController&lt;/font&gt;&lt;/div&gt;" style="shape=umlLifeline;perimeter=lifelinePerimeter;whiteSpace=wrap;html=1;container=0;dropTarget=0;collapsible=0;recursiveResize=0;outlineConnect=0;portConstraint=eastwest;newEdgeStyle={&quot;edgeStyle&quot;:&quot;elbowEdgeStyle&quot;,&quot;elbow&quot;:&quot;vertical&quot;,&quot;curved&quot;:0,&quot;rounded&quot;:0};" parent="1" vertex="1">
          <mxGeometry x="560" y="180" width="80" height="2170" as="geometry" />
        </mxCell>
        <mxCell id="aM9ryv3xv72pqoxQDRHE-6" value="" style="html=1;points=[];perimeter=orthogonalPerimeter;outlineConnect=0;targetShapes=umlLifeline;portConstraint=eastwest;newEdgeStyle={&quot;edgeStyle&quot;:&quot;elbowEdgeStyle&quot;,&quot;elbow&quot;:&quot;vertical&quot;,&quot;curved&quot;:0,&quot;rounded&quot;:0};" parent="aM9ryv3xv72pqoxQDRHE-5" vertex="1">
          <mxGeometry x="35" y="930" width="10" height="50" as="geometry" />
        </mxCell>
        <mxCell id="JXOqe9_d9sMP_DMaJgzB-118" value="" style="html=1;points=[];perimeter=orthogonalPerimeter;outlineConnect=0;targetShapes=umlLifeline;portConstraint=eastwest;newEdgeStyle={&quot;edgeStyle&quot;:&quot;elbowEdgeStyle&quot;,&quot;elbow&quot;:&quot;vertical&quot;,&quot;curved&quot;:0,&quot;rounded&quot;:0};" vertex="1" parent="aM9ryv3xv72pqoxQDRHE-5">
          <mxGeometry x="35" y="60" width="10" height="30" as="geometry" />
        </mxCell>
        <mxCell id="JXOqe9_d9sMP_DMaJgzB-150" value="" style="html=1;points=[];perimeter=orthogonalPerimeter;outlineConnect=0;targetShapes=umlLifeline;portConstraint=eastwest;newEdgeStyle={&quot;edgeStyle&quot;:&quot;elbowEdgeStyle&quot;,&quot;elbow&quot;:&quot;vertical&quot;,&quot;curved&quot;:0,&quot;rounded&quot;:0};" vertex="1" parent="aM9ryv3xv72pqoxQDRHE-5">
          <mxGeometry x="35" y="1360" width="10" height="70" as="geometry" />
        </mxCell>
        <mxCell id="JXOqe9_d9sMP_DMaJgzB-1" value="DBConnector" style="shape=umlLifeline;perimeter=lifelinePerimeter;whiteSpace=wrap;html=1;container=0;dropTarget=0;collapsible=0;recursiveResize=0;outlineConnect=0;portConstraint=eastwest;newEdgeStyle={&quot;edgeStyle&quot;:&quot;elbowEdgeStyle&quot;,&quot;elbow&quot;:&quot;vertical&quot;,&quot;curved&quot;:0,&quot;rounded&quot;:0};" vertex="1" parent="1">
          <mxGeometry x="1005" y="269" width="80" height="2081" as="geometry" />
        </mxCell>
        <mxCell id="JXOqe9_d9sMP_DMaJgzB-13" value="" style="group" vertex="1" connectable="0" parent="1">
          <mxGeometry x="100" y="19" width="30" height="2271" as="geometry" />
        </mxCell>
        <mxCell id="JXOqe9_d9sMP_DMaJgzB-61" value="" style="endArrow=none;dashed=1;html=1;rounded=0;" edge="1" parent="JXOqe9_d9sMP_DMaJgzB-13">
          <mxGeometry width="50" height="50" relative="1" as="geometry">
            <mxPoint x="14.909999999999949" y="182.3264705882353" as="sourcePoint" />
            <mxPoint x="15" y="81" as="targetPoint" />
          </mxGeometry>
        </mxCell>
        <mxCell id="JXOqe9_d9sMP_DMaJgzB-8" value="" style="html=1;points=[];perimeter=orthogonalPerimeter;outlineConnect=0;targetShapes=umlLifeline;portConstraint=eastwest;newEdgeStyle={&quot;edgeStyle&quot;:&quot;elbowEdgeStyle&quot;,&quot;elbow&quot;:&quot;vertical&quot;,&quot;curved&quot;:0,&quot;rounded&quot;:0};" vertex="1" parent="JXOqe9_d9sMP_DMaJgzB-13">
          <mxGeometry x="10" y="120" width="10" height="2151" as="geometry" />
        </mxCell>
        <mxCell id="JXOqe9_d9sMP_DMaJgzB-9" value="User" style="shape=umlActor;verticalLabelPosition=bottom;verticalAlign=top;html=1;outlineConnect=0;" vertex="1" parent="JXOqe9_d9sMP_DMaJgzB-13">
          <mxGeometry y="-9" width="30" height="61.32" as="geometry" />
        </mxCell>
        <mxCell id="JXOqe9_d9sMP_DMaJgzB-16" value="&lt;span&gt;startProgram&lt;/span&gt;" style="html=1;verticalAlign=bottom;endArrow=open;edgeStyle=elbowEdgeStyle;elbow=vertical;curved=0;rounded=0;endFill=0;dashed=1;" edge="1" parent="1">
          <mxGeometry relative="1" as="geometry">
            <mxPoint x="120" y="150" as="sourcePoint" />
            <Array as="points">
              <mxPoint x="382.5" y="150" />
              <mxPoint x="107.5" y="170" />
            </Array>
            <mxPoint x="400" y="150" as="targetPoint" />
          </mxGeometry>
        </mxCell>
        <mxCell id="JXOqe9_d9sMP_DMaJgzB-57" value="Bot" style="shape=umlLifeline;perimeter=lifelinePerimeter;whiteSpace=wrap;html=1;container=0;dropTarget=0;collapsible=0;recursiveResize=0;outlineConnect=0;portConstraint=eastwest;newEdgeStyle={&quot;edgeStyle&quot;:&quot;elbowEdgeStyle&quot;,&quot;elbow&quot;:&quot;vertical&quot;,&quot;curved&quot;:0,&quot;rounded&quot;:0};" vertex="1" parent="1">
          <mxGeometry x="840" y="1250" width="80" height="320" as="geometry" />
        </mxCell>
        <mxCell id="JXOqe9_d9sMP_DMaJgzB-58" value="" style="html=1;points=[];perimeter=orthogonalPerimeter;outlineConnect=0;targetShapes=umlLifeline;portConstraint=eastwest;newEdgeStyle={&quot;edgeStyle&quot;:&quot;elbowEdgeStyle&quot;,&quot;elbow&quot;:&quot;vertical&quot;,&quot;curved&quot;:0,&quot;rounded&quot;:0};" vertex="1" parent="JXOqe9_d9sMP_DMaJgzB-57">
          <mxGeometry x="35" y="140" width="10" height="70" as="geometry" />
        </mxCell>
        <mxCell id="JXOqe9_d9sMP_DMaJgzB-64" value="newTUI" style="html=1;verticalAlign=bottom;endArrow=none;edgeStyle=elbowEdgeStyle;elbow=vertical;curved=0;rounded=0;startArrow=open;startFill=0;endFill=0;dashed=1;" edge="1" parent="1" target="aM9ryv3xv72pqoxQDRHE-2">
          <mxGeometry relative="1" as="geometry">
            <mxPoint x="320" y="270" as="sourcePoint" />
            <Array as="points">
              <mxPoint x="324.69" y="270.00000000000006" />
            </Array>
            <mxPoint x="430" y="270" as="targetPoint" />
          </mxGeometry>
        </mxCell>
        <mxCell id="JXOqe9_d9sMP_DMaJgzB-65" value="newBotController" style="html=1;verticalAlign=bottom;endArrow=open;edgeStyle=elbowEdgeStyle;elbow=vertical;curved=0;rounded=0;dashed=1;endFill=0;" edge="1" parent="1">
          <mxGeometry relative="1" as="geometry">
            <mxPoint x="445" y="200" as="sourcePoint" />
            <Array as="points">
              <mxPoint x="460" y="200" />
            </Array>
            <mxPoint x="560" y="200.5" as="targetPoint" />
          </mxGeometry>
        </mxCell>
        <mxCell id="JXOqe9_d9sMP_DMaJgzB-69" value="newDB" style="html=1;verticalAlign=bottom;endArrow=open;dashed=1;endSize=8;edgeStyle=elbowEdgeStyle;elbow=vertical;curved=0;rounded=0;" edge="1" parent="1" source="aM9ryv3xv72pqoxQDRHE-2">
          <mxGeometry x="-0.8151" relative="1" as="geometry">
            <mxPoint x="1000" y="290" as="targetPoint" />
            <Array as="points">
              <mxPoint x="450" y="290" />
            </Array>
            <mxPoint x="450" y="290" as="sourcePoint" />
            <mxPoint as="offset" />
          </mxGeometry>
        </mxCell>
        <mxCell id="JXOqe9_d9sMP_DMaJgzB-72" value="newBotFactory" style="html=1;verticalAlign=bottom;endArrow=open;edgeStyle=elbowEdgeStyle;elbow=vertical;curved=0;rounded=0;dashed=1;endFill=0;" edge="1" parent="1">
          <mxGeometry relative="1" as="geometry">
            <mxPoint x="605" y="250" as="sourcePoint" />
            <Array as="points">
              <mxPoint x="620" y="250" />
            </Array>
            <mxPoint x="720" y="250.5" as="targetPoint" />
          </mxGeometry>
        </mxCell>
        <mxCell id="JXOqe9_d9sMP_DMaJgzB-106" value="&quot;Welcome...&quot;" style="html=1;verticalAlign=bottom;endArrow=none;edgeStyle=elbowEdgeStyle;elbow=vertical;curved=0;rounded=0;startArrow=open;startFill=0;endFill=0;" edge="1" parent="1" target="JXOqe9_d9sMP_DMaJgzB-19">
          <mxGeometry relative="1" as="geometry">
            <mxPoint x="120" y="380" as="sourcePoint" />
            <Array as="points">
              <mxPoint x="179.69" y="380" />
            </Array>
            <mxPoint x="270" y="380" as="targetPoint" />
          </mxGeometry>
        </mxCell>
        <mxCell id="JXOqe9_d9sMP_DMaJgzB-108" value="&quot;username?&quot;" style="html=1;verticalAlign=bottom;endArrow=none;edgeStyle=elbowEdgeStyle;elbow=vertical;curved=0;rounded=0;startArrow=open;startFill=0;endFill=0;" edge="1" parent="1">
          <mxGeometry relative="1" as="geometry">
            <mxPoint x="120" y="439.86" as="sourcePoint" />
            <Array as="points">
              <mxPoint x="179.69" y="439.86" />
            </Array>
            <mxPoint x="275" y="439.86" as="targetPoint" />
          </mxGeometry>
        </mxCell>
        <mxCell id="JXOqe9_d9sMP_DMaJgzB-17" value="getLogin" style="html=1;verticalAlign=bottom;endArrow=none;edgeStyle=elbowEdgeStyle;elbow=vertical;curved=0;rounded=0;startArrow=block;startFill=1;endFill=0;" edge="1" parent="1">
          <mxGeometry relative="1" as="geometry">
            <mxPoint x="285" y="466" as="sourcePoint" />
            <Array as="points">
              <mxPoint x="339.69" y="466" />
            </Array>
            <mxPoint x="435" y="466" as="targetPoint" />
          </mxGeometry>
        </mxCell>
        <mxCell id="JXOqe9_d9sMP_DMaJgzB-21" value="getLogin" style="html=1;verticalAlign=bottom;endArrow=none;edgeStyle=elbowEdgeStyle;elbow=vertical;curved=0;rounded=0;startArrow=block;startFill=1;endFill=0;" edge="1" parent="1">
          <mxGeometry relative="1" as="geometry">
            <mxPoint x="120" y="480.14" as="sourcePoint" />
            <Array as="points" />
            <mxPoint x="275" y="480.0023809523809" as="targetPoint" />
          </mxGeometry>
        </mxCell>
        <mxCell id="aM9ryv3xv72pqoxQDRHE-10" value="getLogin:username" style="html=1;verticalAlign=bottom;endArrow=open;dashed=1;endSize=8;edgeStyle=elbowEdgeStyle;elbow=vertical;curved=0;rounded=0;" parent="1" edge="1">
          <mxGeometry relative="1" as="geometry">
            <mxPoint x="275" y="510" as="targetPoint" />
            <Array as="points">
              <mxPoint x="115.5" y="510" />
            </Array>
            <mxPoint x="155.5" y="510" as="sourcePoint" />
          </mxGeometry>
        </mxCell>
        <mxCell id="JXOqe9_d9sMP_DMaJgzB-27" value="getLogin:username" style="html=1;verticalAlign=bottom;endArrow=open;dashed=1;endSize=8;edgeStyle=elbowEdgeStyle;elbow=vertical;curved=0;rounded=0;" edge="1" parent="1">
          <mxGeometry relative="1" as="geometry">
            <mxPoint x="432.5" y="530" as="targetPoint" />
            <Array as="points">
              <mxPoint x="287.5" y="530" />
            </Array>
            <mxPoint x="312.5" y="530" as="sourcePoint" />
          </mxGeometry>
        </mxCell>
        <mxCell id="JXOqe9_d9sMP_DMaJgzB-110" value="&quot;password?&quot;" style="html=1;verticalAlign=bottom;endArrow=none;edgeStyle=elbowEdgeStyle;elbow=vertical;curved=0;rounded=0;startArrow=open;startFill=0;endFill=0;" edge="1" parent="1">
          <mxGeometry relative="1" as="geometry">
            <mxPoint x="120" y="570" as="sourcePoint" />
            <Array as="points">
              <mxPoint x="179.69" y="570" />
            </Array>
            <mxPoint x="275" y="570" as="targetPoint" />
          </mxGeometry>
        </mxCell>
        <mxCell id="JXOqe9_d9sMP_DMaJgzB-28" value="getLogin" style="html=1;verticalAlign=bottom;endArrow=none;edgeStyle=elbowEdgeStyle;elbow=vertical;curved=0;rounded=0;startArrow=block;startFill=1;endFill=0;" edge="1" parent="1">
          <mxGeometry relative="1" as="geometry">
            <mxPoint x="285" y="590.0232558139535" as="sourcePoint" />
            <Array as="points" />
            <mxPoint x="435" y="589.9999999999999" as="targetPoint" />
          </mxGeometry>
        </mxCell>
        <mxCell id="JXOqe9_d9sMP_DMaJgzB-23" value="getLogin:pw" style="html=1;verticalAlign=bottom;endArrow=open;dashed=1;endSize=8;edgeStyle=elbowEdgeStyle;elbow=vertical;curved=0;rounded=0;" edge="1" parent="1">
          <mxGeometry relative="1" as="geometry">
            <mxPoint x="275" y="647.4" as="targetPoint" />
            <Array as="points">
              <mxPoint x="120" y="647.4" />
            </Array>
            <mxPoint x="130" y="647.4" as="sourcePoint" />
          </mxGeometry>
        </mxCell>
        <mxCell id="JXOqe9_d9sMP_DMaJgzB-75" value="getLogin" style="html=1;verticalAlign=bottom;endArrow=none;edgeStyle=elbowEdgeStyle;elbow=vertical;curved=0;rounded=0;startArrow=block;startFill=1;endFill=0;" edge="1" parent="1">
          <mxGeometry relative="1" as="geometry">
            <mxPoint x="120" y="620.1376190476191" as="sourcePoint" />
            <Array as="points" />
            <mxPoint x="275" y="620" as="targetPoint" />
          </mxGeometry>
        </mxCell>
        <mxCell id="JXOqe9_d9sMP_DMaJgzB-112" value="&quot;invalid login&quot;" style="html=1;verticalAlign=bottom;endArrow=none;edgeStyle=elbowEdgeStyle;elbow=vertical;curved=0;rounded=0;startArrow=open;startFill=0;endFill=0;" edge="1" parent="1">
          <mxGeometry relative="1" as="geometry">
            <mxPoint x="120" y="760" as="sourcePoint" />
            <Array as="points">
              <mxPoint x="179.69" y="760" />
            </Array>
            <mxPoint x="275" y="760" as="targetPoint" />
          </mxGeometry>
        </mxCell>
        <mxCell id="JXOqe9_d9sMP_DMaJgzB-40" value="getUserInput" style="html=1;verticalAlign=bottom;endArrow=none;edgeStyle=elbowEdgeStyle;elbow=vertical;curved=0;rounded=0;startArrow=block;startFill=1;endFill=0;" edge="1" parent="1">
          <mxGeometry relative="1" as="geometry">
            <mxPoint x="120" y="981" as="sourcePoint" />
            <Array as="points">
              <mxPoint x="215" y="980.8" />
            </Array>
            <mxPoint x="275" y="980.8" as="targetPoint" />
          </mxGeometry>
        </mxCell>
        <mxCell id="JXOqe9_d9sMP_DMaJgzB-41" value="getUserInput: &quot;list Bots&quot;" style="html=1;verticalAlign=bottom;endArrow=open;dashed=1;endSize=8;edgeStyle=elbowEdgeStyle;elbow=vertical;curved=0;rounded=0;" edge="1" parent="1">
          <mxGeometry x="0.3617" relative="1" as="geometry">
            <mxPoint x="275" y="1080" as="targetPoint" />
            <Array as="points">
              <mxPoint x="120" y="1080" />
            </Array>
            <mxPoint x="200" y="1080" as="sourcePoint" />
            <mxPoint as="offset" />
          </mxGeometry>
        </mxCell>
        <mxCell id="JXOqe9_d9sMP_DMaJgzB-43" value="getUserInput: &quot;listBots&quot;" style="html=1;verticalAlign=bottom;endArrow=open;dashed=1;endSize=8;edgeStyle=elbowEdgeStyle;elbow=vertical;curved=0;rounded=0;" edge="1" parent="1">
          <mxGeometry x="0.2105" relative="1" as="geometry">
            <mxPoint x="435" y="1100" as="targetPoint" />
            <Array as="points">
              <mxPoint x="285" y="1100" />
            </Array>
            <mxPoint x="325" y="1100" as="sourcePoint" />
            <mxPoint as="offset" />
          </mxGeometry>
        </mxCell>
        <mxCell id="JXOqe9_d9sMP_DMaJgzB-45" value="listBots" style="html=1;verticalAlign=bottom;endArrow=block;edgeStyle=elbowEdgeStyle;elbow=vertical;curved=0;rounded=0;" edge="1" parent="1">
          <mxGeometry relative="1" as="geometry">
            <mxPoint x="445" y="1120" as="sourcePoint" />
            <Array as="points">
              <mxPoint x="455" y="1120" />
            </Array>
            <mxPoint x="595" y="1120" as="targetPoint" />
          </mxGeometry>
        </mxCell>
        <mxCell id="JXOqe9_d9sMP_DMaJgzB-47" value="listBots: output" style="html=1;verticalAlign=bottom;endArrow=open;dashed=1;endSize=8;edgeStyle=elbowEdgeStyle;elbow=vertical;curved=0;rounded=0;" edge="1" parent="1" source="aM9ryv3xv72pqoxQDRHE-6">
          <mxGeometry relative="1" as="geometry">
            <mxPoint x="445" y="1150" as="targetPoint" />
            <Array as="points">
              <mxPoint x="520" y="1150" />
            </Array>
            <mxPoint x="590" y="1150" as="sourcePoint" />
          </mxGeometry>
        </mxCell>
        <mxCell id="JXOqe9_d9sMP_DMaJgzB-42" value="alt" style="shape=umlFrame;whiteSpace=wrap;html=1;pointerEvents=0;" vertex="1" parent="1">
          <mxGeometry x="20" y="1014.5" width="1130" height="1425.5" as="geometry" />
        </mxCell>
        <mxCell id="JXOqe9_d9sMP_DMaJgzB-51" value="" style="endArrow=none;html=1;rounded=0;dashed=1;dashPattern=8 8;exitX=0.003;exitY=0.121;exitDx=0;exitDy=0;exitPerimeter=0;entryX=0.999;entryY=0.124;entryDx=0;entryDy=0;entryPerimeter=0;" edge="1" parent="1">
          <mxGeometry width="50" height="50" relative="1" as="geometry">
            <mxPoint x="31.9999999999997" y="1183.8600000000001" as="sourcePoint" />
            <mxPoint x="1137.56" y="1186.1400000000003" as="targetPoint" />
          </mxGeometry>
        </mxCell>
        <mxCell id="JXOqe9_d9sMP_DMaJgzB-53" value="getUserInput: &quot;activate bot&quot;" style="html=1;verticalAlign=bottom;endArrow=open;dashed=1;endSize=8;edgeStyle=elbowEdgeStyle;elbow=vertical;curved=0;rounded=0;" edge="1" parent="1">
          <mxGeometry x="0.1892" relative="1" as="geometry">
            <mxPoint x="435" y="1230.8" as="targetPoint" />
            <Array as="points">
              <mxPoint x="290" y="1230.8" />
            </Array>
            <mxPoint x="330" y="1230.8" as="sourcePoint" />
            <mxPoint as="offset" />
          </mxGeometry>
        </mxCell>
        <mxCell id="JXOqe9_d9sMP_DMaJgzB-52" value="getUserInput: &quot;activate bot&quot;" style="html=1;verticalAlign=bottom;endArrow=open;dashed=1;endSize=8;edgeStyle=elbowEdgeStyle;elbow=vertical;curved=0;rounded=0;" edge="1" parent="1">
          <mxGeometry x="0.2308" relative="1" as="geometry">
            <mxPoint x="275" y="1220" as="targetPoint" />
            <Array as="points">
              <mxPoint x="120" y="1220" />
            </Array>
            <mxPoint x="160" y="1220" as="sourcePoint" />
            <mxPoint as="offset" />
          </mxGeometry>
        </mxCell>
        <mxCell id="JXOqe9_d9sMP_DMaJgzB-56" value="createBot" style="html=1;verticalAlign=bottom;endArrow=block;edgeStyle=elbowEdgeStyle;elbow=vertical;curved=0;rounded=0;" edge="1" parent="1" target="JXOqe9_d9sMP_DMaJgzB-115">
          <mxGeometry relative="1" as="geometry">
            <mxPoint x="445" y="1240" as="sourcePoint" />
            <Array as="points">
              <mxPoint x="450" y="1240" />
            </Array>
            <mxPoint x="575" y="1240" as="targetPoint" />
          </mxGeometry>
        </mxCell>
        <mxCell id="JXOqe9_d9sMP_DMaJgzB-115" value="" style="html=1;points=[];perimeter=orthogonalPerimeter;outlineConnect=0;targetShapes=umlLifeline;portConstraint=eastwest;newEdgeStyle={&quot;edgeStyle&quot;:&quot;elbowEdgeStyle&quot;,&quot;elbow&quot;:&quot;vertical&quot;,&quot;curved&quot;:0,&quot;rounded&quot;:0};" vertex="1" parent="1">
          <mxGeometry x="595" y="1230" width="10" height="70" as="geometry" />
        </mxCell>
        <mxCell id="JXOqe9_d9sMP_DMaJgzB-59" value="createBot" style="html=1;verticalAlign=bottom;endArrow=block;edgeStyle=elbowEdgeStyle;elbow=vertical;curved=0;rounded=0;" edge="1" parent="1">
          <mxGeometry relative="1" as="geometry">
            <mxPoint x="610" y="1250" as="sourcePoint" />
            <Array as="points">
              <mxPoint x="605" y="1250" />
            </Array>
            <mxPoint x="755" y="1250" as="targetPoint" />
          </mxGeometry>
        </mxCell>
        <mxCell id="JXOqe9_d9sMP_DMaJgzB-19" value="" style="html=1;points=[];perimeter=orthogonalPerimeter;outlineConnect=0;targetShapes=umlLifeline;portConstraint=eastwest;newEdgeStyle={&quot;edgeStyle&quot;:&quot;elbowEdgeStyle&quot;,&quot;elbow&quot;:&quot;vertical&quot;,&quot;curved&quot;:0,&quot;rounded&quot;:0};" vertex="1" parent="1">
          <mxGeometry x="275" y="370" width="10" height="1930" as="geometry" />
        </mxCell>
        <mxCell id="aM9ryv3xv72pqoxQDRHE-2" value="" style="html=1;points=[];perimeter=orthogonalPerimeter;outlineConnect=0;targetShapes=umlLifeline;portConstraint=eastwest;newEdgeStyle={&quot;edgeStyle&quot;:&quot;elbowEdgeStyle&quot;,&quot;elbow&quot;:&quot;vertical&quot;,&quot;curved&quot;:0,&quot;rounded&quot;:0};" parent="1" vertex="1">
          <mxGeometry x="435" y="190" width="10" height="2110" as="geometry" />
        </mxCell>
        <mxCell id="JXOqe9_d9sMP_DMaJgzB-2" value="" style="html=1;points=[];perimeter=orthogonalPerimeter;outlineConnect=0;targetShapes=umlLifeline;portConstraint=eastwest;newEdgeStyle={&quot;edgeStyle&quot;:&quot;elbowEdgeStyle&quot;,&quot;elbow&quot;:&quot;vertical&quot;,&quot;curved&quot;:0,&quot;rounded&quot;:0};" vertex="1" parent="1">
          <mxGeometry x="1040" y="1704" width="10" height="100" as="geometry" />
        </mxCell>
        <mxCell id="JXOqe9_d9sMP_DMaJgzB-6" value="" style="html=1;points=[];perimeter=orthogonalPerimeter;outlineConnect=0;targetShapes=umlLifeline;portConstraint=eastwest;newEdgeStyle={&quot;edgeStyle&quot;:&quot;elbowEdgeStyle&quot;,&quot;elbow&quot;:&quot;vertical&quot;,&quot;curved&quot;:0,&quot;rounded&quot;:0};" vertex="1" parent="1">
          <mxGeometry x="755" y="1230" width="10" height="70" as="geometry" />
        </mxCell>
        <mxCell id="JXOqe9_d9sMP_DMaJgzB-24" value="loop" style="shape=umlFrame;whiteSpace=wrap;html=1;pointerEvents=0;" vertex="1" parent="1">
          <mxGeometry x="10" y="410" width="570" height="486" as="geometry" />
        </mxCell>
        <mxCell id="JXOqe9_d9sMP_DMaJgzB-25" value="[while login == false]" style="text;html=1;align=center;verticalAlign=middle;whiteSpace=wrap;rounded=0;" vertex="1" parent="1">
          <mxGeometry x="20" y="460" width="70" height="30" as="geometry" />
        </mxCell>
        <mxCell id="JXOqe9_d9sMP_DMaJgzB-26" value="" style="rounded=0;whiteSpace=wrap;html=1;" vertex="1" parent="1">
          <mxGeometry x="440" y="696" width="10" height="40" as="geometry" />
        </mxCell>
        <mxCell id="JXOqe9_d9sMP_DMaJgzB-29" value="getLogin:pw" style="html=1;verticalAlign=bottom;endArrow=open;dashed=1;endSize=8;edgeStyle=elbowEdgeStyle;elbow=vertical;curved=0;rounded=0;" edge="1" parent="1" source="JXOqe9_d9sMP_DMaJgzB-19">
          <mxGeometry relative="1" as="geometry">
            <mxPoint x="435" y="670.8800000000001" as="targetPoint" />
            <Array as="points" />
            <mxPoint x="310" y="671" as="sourcePoint" />
          </mxGeometry>
        </mxCell>
        <mxCell id="JXOqe9_d9sMP_DMaJgzB-37" value="loop" style="shape=umlFrame;whiteSpace=wrap;html=1;pointerEvents=0;" vertex="1" parent="1">
          <mxGeometry x="10" y="936" width="1150" height="1534" as="geometry" />
        </mxCell>
        <mxCell id="JXOqe9_d9sMP_DMaJgzB-38" value="[while true]" style="text;html=1;align=center;verticalAlign=middle;whiteSpace=wrap;rounded=0;" vertex="1" parent="1">
          <mxGeometry x="10" y="976" width="70" height="30" as="geometry" />
        </mxCell>
        <mxCell id="JXOqe9_d9sMP_DMaJgzB-39" value="getUserInput" style="html=1;verticalAlign=bottom;endArrow=none;edgeStyle=elbowEdgeStyle;elbow=vertical;curved=0;rounded=0;startArrow=block;startFill=1;endFill=0;" edge="1" parent="1" source="JXOqe9_d9sMP_DMaJgzB-19">
          <mxGeometry relative="1" as="geometry">
            <mxPoint x="325" y="970" as="sourcePoint" />
            <Array as="points">
              <mxPoint x="325" y="970" />
            </Array>
            <mxPoint x="435" y="970" as="targetPoint" />
          </mxGeometry>
        </mxCell>
        <mxCell id="JXOqe9_d9sMP_DMaJgzB-60" value="createBot: Bot" style="html=1;verticalAlign=bottom;endArrow=open;dashed=1;endSize=8;edgeStyle=elbowEdgeStyle;elbow=vertical;curved=0;rounded=0;" edge="1" parent="1" target="JXOqe9_d9sMP_DMaJgzB-115">
          <mxGeometry relative="1" as="geometry">
            <mxPoint x="675" y="1279.6" as="targetPoint" />
            <Array as="points">
              <mxPoint x="685" y="1279.6" />
            </Array>
            <mxPoint x="755" y="1279.6" as="sourcePoint" />
          </mxGeometry>
        </mxCell>
        <mxCell id="JXOqe9_d9sMP_DMaJgzB-78" value="" style="edgeStyle=elbowEdgeStyle;elbow=horizontal;endArrow=classic;html=1;curved=0;rounded=0;endSize=8;startSize=8;entryX=1.067;entryY=0.284;entryDx=0;entryDy=0;entryPerimeter=0;" edge="1" parent="1" target="JXOqe9_d9sMP_DMaJgzB-26">
          <mxGeometry width="50" height="50" relative="1" as="geometry">
            <mxPoint x="445" y="686" as="sourcePoint" />
            <mxPoint x="454.44000000000005" y="708" as="targetPoint" />
            <Array as="points">
              <mxPoint x="480" y="686" />
            </Array>
          </mxGeometry>
        </mxCell>
        <mxCell id="JXOqe9_d9sMP_DMaJgzB-80" value="login(user, pw)" style="text;html=1;align=center;verticalAlign=middle;whiteSpace=wrap;rounded=0;" vertex="1" parent="1">
          <mxGeometry x="480" y="676" width="90" height="30" as="geometry" />
        </mxCell>
        <mxCell id="JXOqe9_d9sMP_DMaJgzB-91" value="" style="edgeStyle=elbowEdgeStyle;elbow=horizontal;endArrow=none;html=1;curved=0;rounded=0;endSize=8;startSize=8;startArrow=open;startFill=0;endFill=0;dashed=1;entryX=1;entryY=0.75;entryDx=0;entryDy=0;" edge="1" parent="1" target="JXOqe9_d9sMP_DMaJgzB-26">
          <mxGeometry width="50" height="50" relative="1" as="geometry">
            <mxPoint x="445" y="747.8199999999999" as="sourcePoint" />
            <mxPoint x="451.80999999999995" y="739.18" as="targetPoint" />
            <Array as="points">
              <mxPoint x="480" y="746" />
            </Array>
          </mxGeometry>
        </mxCell>
        <mxCell id="JXOqe9_d9sMP_DMaJgzB-93" value="login(user, pw): false" style="text;whiteSpace=wrap;html=1;" vertex="1" parent="1">
          <mxGeometry x="490" y="723.5" width="70" height="40" as="geometry" />
        </mxCell>
        <mxCell id="JXOqe9_d9sMP_DMaJgzB-94" value="alt" style="shape=umlFrame;whiteSpace=wrap;html=1;pointerEvents=0;" vertex="1" parent="1">
          <mxGeometry x="20" y="713.5" width="550" height="172.5" as="geometry" />
        </mxCell>
        <mxCell id="JXOqe9_d9sMP_DMaJgzB-95" value="" style="endArrow=none;html=1;rounded=0;dashed=1;dashPattern=8 8;exitX=0.002;exitY=0.385;exitDx=0;exitDy=0;exitPerimeter=0;" edge="1" parent="1">
          <mxGeometry width="50" height="50" relative="1" as="geometry">
            <mxPoint x="20" y="784.25" as="sourcePoint" />
            <mxPoint x="570" y="786" as="targetPoint" />
          </mxGeometry>
        </mxCell>
        <mxCell id="JXOqe9_d9sMP_DMaJgzB-96" value="" style="rounded=0;whiteSpace=wrap;html=1;" vertex="1" parent="1">
          <mxGeometry x="440" y="786" width="10" height="40" as="geometry" />
        </mxCell>
        <mxCell id="JXOqe9_d9sMP_DMaJgzB-97" value="" style="edgeStyle=elbowEdgeStyle;elbow=horizontal;endArrow=none;html=1;curved=0;rounded=0;endSize=8;startSize=8;startArrow=open;startFill=0;endFill=0;dashed=1;entryX=1;entryY=0.75;entryDx=0;entryDy=0;" edge="1" parent="1">
          <mxGeometry width="50" height="50" relative="1" as="geometry">
            <mxPoint x="445" y="836.8199999999999" as="sourcePoint" />
            <mxPoint x="450" y="815" as="targetPoint" />
            <Array as="points">
              <mxPoint x="480" y="835" />
            </Array>
          </mxGeometry>
        </mxCell>
        <mxCell id="JXOqe9_d9sMP_DMaJgzB-98" value="&lt;div&gt;login(user, pw):&amp;nbsp;&lt;/div&gt;&lt;div&gt;true&lt;/div&gt;" style="text;whiteSpace=wrap;html=1;" vertex="1" parent="1">
          <mxGeometry x="480" y="806" width="110" height="40" as="geometry" />
        </mxCell>
        <mxCell id="JXOqe9_d9sMP_DMaJgzB-99" value="displayMessage" style="html=1;verticalAlign=bottom;endArrow=none;edgeStyle=elbowEdgeStyle;elbow=vertical;curved=0;rounded=0;startArrow=open;startFill=0;endFill=0;" edge="1" parent="1">
          <mxGeometry relative="1" as="geometry">
            <mxPoint x="285" y="763.5" as="sourcePoint" />
            <Array as="points">
              <mxPoint x="339.69" y="763.5" />
            </Array>
            <mxPoint x="435" y="763.5" as="targetPoint" />
          </mxGeometry>
        </mxCell>
        <mxCell id="JXOqe9_d9sMP_DMaJgzB-100" value="&quot;login successful&quot;" style="html=1;verticalAlign=bottom;endArrow=none;edgeStyle=elbowEdgeStyle;elbow=vertical;curved=0;rounded=0;startArrow=open;startFill=0;endFill=0;" edge="1" parent="1">
          <mxGeometry x="0.0027" relative="1" as="geometry">
            <mxPoint x="120" y="866" as="sourcePoint" />
            <Array as="points">
              <mxPoint x="174.69" y="866" />
            </Array>
            <mxPoint x="270" y="866" as="targetPoint" />
            <mxPoint as="offset" />
          </mxGeometry>
        </mxCell>
        <mxCell id="JXOqe9_d9sMP_DMaJgzB-101" value="displayMessage" style="html=1;verticalAlign=bottom;endArrow=none;edgeStyle=elbowEdgeStyle;elbow=vertical;curved=0;rounded=0;startArrow=open;startFill=0;endFill=0;" edge="1" parent="1">
          <mxGeometry relative="1" as="geometry">
            <mxPoint x="285" y="856" as="sourcePoint" />
            <Array as="points">
              <mxPoint x="339.69" y="856" />
            </Array>
            <mxPoint x="435" y="856" as="targetPoint" />
          </mxGeometry>
        </mxCell>
        <mxCell id="JXOqe9_d9sMP_DMaJgzB-102" value="displayMessage" style="html=1;verticalAlign=bottom;endArrow=none;edgeStyle=elbowEdgeStyle;elbow=vertical;curved=0;rounded=0;startArrow=open;startFill=0;endFill=0;" edge="1" parent="1" source="JXOqe9_d9sMP_DMaJgzB-19" target="aM9ryv3xv72pqoxQDRHE-2">
          <mxGeometry relative="1" as="geometry">
            <mxPoint x="290" y="380" as="sourcePoint" />
            <Array as="points">
              <mxPoint x="344.69" y="380" />
            </Array>
            <mxPoint x="430" y="380" as="targetPoint" />
          </mxGeometry>
        </mxCell>
        <mxCell id="JXOqe9_d9sMP_DMaJgzB-107" value="displayMessage" style="html=1;verticalAlign=bottom;endArrow=none;edgeStyle=elbowEdgeStyle;elbow=vertical;curved=0;rounded=0;startArrow=open;startFill=0;endFill=0;" edge="1" parent="1" source="JXOqe9_d9sMP_DMaJgzB-19" target="aM9ryv3xv72pqoxQDRHE-2">
          <mxGeometry relative="1" as="geometry">
            <mxPoint x="290" y="440" as="sourcePoint" />
            <Array as="points">
              <mxPoint x="349.69" y="440" />
            </Array>
            <mxPoint x="430" y="440" as="targetPoint" />
          </mxGeometry>
        </mxCell>
        <mxCell id="JXOqe9_d9sMP_DMaJgzB-109" value="displayMessage" style="html=1;verticalAlign=bottom;endArrow=none;edgeStyle=elbowEdgeStyle;elbow=vertical;curved=0;rounded=0;startArrow=open;startFill=0;endFill=0;" edge="1" parent="1" source="JXOqe9_d9sMP_DMaJgzB-19" target="aM9ryv3xv72pqoxQDRHE-2">
          <mxGeometry relative="1" as="geometry">
            <mxPoint x="290" y="570" as="sourcePoint" />
            <Array as="points">
              <mxPoint x="344.69" y="570" />
            </Array>
            <mxPoint x="430" y="570" as="targetPoint" />
          </mxGeometry>
        </mxCell>
        <mxCell id="JXOqe9_d9sMP_DMaJgzB-117" value="newBot" style="html=1;verticalAlign=bottom;endArrow=open;edgeStyle=elbowEdgeStyle;elbow=vertical;curved=0;rounded=0;dashed=1;endFill=0;entryX=0;entryY=0.065;entryDx=0;entryDy=0;entryPerimeter=0;" edge="1" parent="1" target="JXOqe9_d9sMP_DMaJgzB-57">
          <mxGeometry relative="1" as="geometry">
            <mxPoint x="765" y="1270" as="sourcePoint" />
            <Array as="points">
              <mxPoint x="850" y="1270" />
            </Array>
            <mxPoint x="860" y="1270" as="targetPoint" />
          </mxGeometry>
        </mxCell>
        <mxCell id="JXOqe9_d9sMP_DMaJgzB-119" value="createBot: Bot" style="html=1;verticalAlign=bottom;endArrow=open;dashed=1;endSize=8;edgeStyle=elbowEdgeStyle;elbow=vertical;curved=0;rounded=0;" edge="1" parent="1">
          <mxGeometry relative="1" as="geometry">
            <mxPoint x="445" y="1290.4" as="targetPoint" />
            <Array as="points">
              <mxPoint x="525" y="1290" />
            </Array>
            <mxPoint x="595" y="1290" as="sourcePoint" />
          </mxGeometry>
        </mxCell>
        <mxCell id="JXOqe9_d9sMP_DMaJgzB-124" value="" style="endArrow=none;html=1;rounded=0;dashed=1;dashPattern=8 8;exitX=0;exitY=0.254;exitDx=0;exitDy=0;exitPerimeter=0;entryX=1;entryY=0.253;entryDx=0;entryDy=0;entryPerimeter=0;" edge="1" parent="1">
          <mxGeometry width="50" height="50" relative="1" as="geometry">
            <mxPoint x="30" y="1320.76" as="sourcePoint" />
            <mxPoint x="1140" y="1319.9999999999998" as="targetPoint" />
          </mxGeometry>
        </mxCell>
        <mxCell id="JXOqe9_d9sMP_DMaJgzB-126" value="getUserInput: &quot;call bot&quot;" style="html=1;verticalAlign=bottom;endArrow=open;dashed=1;endSize=8;edgeStyle=elbowEdgeStyle;elbow=vertical;curved=0;rounded=0;" edge="1" parent="1">
          <mxGeometry x="0.2308" relative="1" as="geometry">
            <mxPoint x="275" y="1360" as="targetPoint" />
            <Array as="points">
              <mxPoint x="120" y="1360" />
            </Array>
            <mxPoint x="160" y="1360" as="sourcePoint" />
            <mxPoint as="offset" />
          </mxGeometry>
        </mxCell>
        <mxCell id="JXOqe9_d9sMP_DMaJgzB-127" value="getUserInput: &quot;call bot&quot;" style="html=1;verticalAlign=bottom;endArrow=open;dashed=1;endSize=8;edgeStyle=elbowEdgeStyle;elbow=vertical;curved=0;rounded=0;" edge="1" parent="1">
          <mxGeometry relative="1" as="geometry">
            <mxPoint x="435" y="1370" as="targetPoint" />
            <Array as="points" />
            <mxPoint x="285" y="1370" as="sourcePoint" />
            <mxPoint as="offset" />
          </mxGeometry>
        </mxCell>
        <mxCell id="JXOqe9_d9sMP_DMaJgzB-128" value="callBot(bot, message)" style="html=1;verticalAlign=bottom;endArrow=block;edgeStyle=elbowEdgeStyle;elbow=vertical;curved=0;rounded=0;" edge="1" parent="1" target="JXOqe9_d9sMP_DMaJgzB-129">
          <mxGeometry relative="1" as="geometry">
            <mxPoint x="445" y="1390" as="sourcePoint" />
            <Array as="points">
              <mxPoint x="450" y="1390" />
            </Array>
            <mxPoint x="590" y="1390" as="targetPoint" />
          </mxGeometry>
        </mxCell>
        <mxCell id="JXOqe9_d9sMP_DMaJgzB-129" value="" style="html=1;points=[];perimeter=orthogonalPerimeter;outlineConnect=0;targetShapes=umlLifeline;portConstraint=eastwest;newEdgeStyle={&quot;edgeStyle&quot;:&quot;elbowEdgeStyle&quot;,&quot;elbow&quot;:&quot;vertical&quot;,&quot;curved&quot;:0,&quot;rounded&quot;:0};" vertex="1" parent="1">
          <mxGeometry x="595" y="1380" width="10" height="90" as="geometry" />
        </mxCell>
        <mxCell id="JXOqe9_d9sMP_DMaJgzB-130" value="digestMessage(message)" style="html=1;verticalAlign=bottom;endArrow=block;edgeStyle=elbowEdgeStyle;elbow=vertical;curved=0;rounded=0;" edge="1" parent="1" target="JXOqe9_d9sMP_DMaJgzB-58">
          <mxGeometry relative="1" as="geometry">
            <mxPoint x="605" y="1400" as="sourcePoint" />
            <Array as="points">
              <mxPoint x="610" y="1400" />
            </Array>
            <mxPoint x="755" y="1400" as="targetPoint" />
          </mxGeometry>
        </mxCell>
        <mxCell id="JXOqe9_d9sMP_DMaJgzB-132" value="API" style="shape=umlLifeline;perimeter=lifelinePerimeter;whiteSpace=wrap;html=1;container=0;dropTarget=0;collapsible=0;recursiveResize=0;outlineConnect=0;portConstraint=eastwest;newEdgeStyle={&quot;edgeStyle&quot;:&quot;elbowEdgeStyle&quot;,&quot;elbow&quot;:&quot;vertical&quot;,&quot;curved&quot;:0,&quot;rounded&quot;:0};" vertex="1" parent="1">
          <mxGeometry x="950" y="1250" width="80" height="1220" as="geometry" />
        </mxCell>
        <mxCell id="JXOqe9_d9sMP_DMaJgzB-133" value="" style="html=1;points=[];perimeter=orthogonalPerimeter;outlineConnect=0;targetShapes=umlLifeline;portConstraint=eastwest;newEdgeStyle={&quot;edgeStyle&quot;:&quot;elbowEdgeStyle&quot;,&quot;elbow&quot;:&quot;vertical&quot;,&quot;curved&quot;:0,&quot;rounded&quot;:0};" vertex="1" parent="JXOqe9_d9sMP_DMaJgzB-132">
          <mxGeometry x="35" y="140" width="10" height="60" as="geometry" />
        </mxCell>
        <mxCell id="JXOqe9_d9sMP_DMaJgzB-134" value="fetch(message)" style="html=1;verticalAlign=bottom;endArrow=block;edgeStyle=elbowEdgeStyle;elbow=vertical;curved=0;rounded=0;" edge="1" parent="1">
          <mxGeometry relative="1" as="geometry">
            <mxPoint x="885" y="1404.9199999999998" as="sourcePoint" />
            <Array as="points">
              <mxPoint x="895" y="1404.9199999999998" />
            </Array>
            <mxPoint x="985" y="1404.9199999999998" as="targetPoint" />
          </mxGeometry>
        </mxCell>
        <mxCell id="JXOqe9_d9sMP_DMaJgzB-135" value="fetch(message):&amp;nbsp;&lt;br&gt;answer" style="html=1;verticalAlign=bottom;endArrow=none;edgeStyle=elbowEdgeStyle;elbow=vertical;curved=0;rounded=0;dashed=1;startArrow=open;startFill=0;endFill=0;" edge="1" parent="1" source="JXOqe9_d9sMP_DMaJgzB-58" target="JXOqe9_d9sMP_DMaJgzB-133">
          <mxGeometry relative="1" as="geometry">
            <mxPoint x="890" y="1440" as="sourcePoint" />
            <Array as="points">
              <mxPoint x="890" y="1440" />
            </Array>
            <mxPoint x="980" y="1440" as="targetPoint" />
          </mxGeometry>
        </mxCell>
        <mxCell id="JXOqe9_d9sMP_DMaJgzB-136" value="digestMessage(message): answer" style="html=1;verticalAlign=bottom;endArrow=none;edgeStyle=elbowEdgeStyle;elbow=vertical;curved=0;rounded=0;startArrow=open;startFill=0;dashed=1;endFill=0;" edge="1" parent="1">
          <mxGeometry relative="1" as="geometry">
            <mxPoint x="605" y="1450" as="sourcePoint" />
            <Array as="points">
              <mxPoint x="610" y="1450" />
            </Array>
            <mxPoint x="875" y="1450" as="targetPoint" />
          </mxGeometry>
        </mxCell>
        <mxCell id="JXOqe9_d9sMP_DMaJgzB-137" value="callBot(bot, message):&amp;nbsp;&lt;br&gt;output" style="html=1;verticalAlign=bottom;endArrow=none;edgeStyle=elbowEdgeStyle;elbow=vertical;curved=0;rounded=0;dashed=1;startArrow=open;startFill=0;endFill=0;" edge="1" parent="1">
          <mxGeometry relative="1" as="geometry">
            <mxPoint x="445" y="1460" as="sourcePoint" />
            <Array as="points">
              <mxPoint x="450" y="1460" />
            </Array>
            <mxPoint x="595" y="1460" as="targetPoint" />
          </mxGeometry>
        </mxCell>
        <mxCell id="JXOqe9_d9sMP_DMaJgzB-138" value="" style="endArrow=none;html=1;rounded=0;dashed=1;dashPattern=8 8;exitX=0.002;exitY=0.403;exitDx=0;exitDy=0;exitPerimeter=0;entryX=1;entryY=0.404;entryDx=0;entryDy=0;entryPerimeter=0;" edge="1" parent="1">
          <mxGeometry width="50" height="50" relative="1" as="geometry">
            <mxPoint x="19.9999999999998" y="1490.0000000000002" as="sourcePoint" />
            <mxPoint x="1127.78" y="1490.76" as="targetPoint" />
          </mxGeometry>
        </mxCell>
        <mxCell id="JXOqe9_d9sMP_DMaJgzB-139" value="&lt;div&gt;getUserInput:&amp;nbsp;&lt;br&gt;&quot;loadChatData&quot;&lt;/div&gt;" style="html=1;verticalAlign=bottom;endArrow=open;dashed=1;endSize=8;edgeStyle=elbowEdgeStyle;elbow=vertical;curved=0;rounded=0;" edge="1" parent="1">
          <mxGeometry x="0.2308" relative="1" as="geometry">
            <mxPoint x="275" y="1670" as="targetPoint" />
            <Array as="points">
              <mxPoint x="120" y="1670" />
            </Array>
            <mxPoint x="160" y="1670" as="sourcePoint" />
            <mxPoint as="offset" />
          </mxGeometry>
        </mxCell>
        <mxCell id="JXOqe9_d9sMP_DMaJgzB-140" value="&lt;div&gt;getUserInput:&amp;nbsp;&lt;br&gt;&quot;loadChatData&quot;&lt;/div&gt;" style="html=1;verticalAlign=bottom;endArrow=open;dashed=1;endSize=8;edgeStyle=elbowEdgeStyle;elbow=vertical;curved=0;rounded=0;" edge="1" parent="1">
          <mxGeometry x="0.2308" relative="1" as="geometry">
            <mxPoint x="435" y="1694" as="targetPoint" />
            <Array as="points">
              <mxPoint x="285" y="1694" />
            </Array>
            <mxPoint x="325" y="1694" as="sourcePoint" />
            <mxPoint as="offset" />
          </mxGeometry>
        </mxCell>
        <mxCell id="JXOqe9_d9sMP_DMaJgzB-141" value="loadChatData(user)" style="html=1;verticalAlign=bottom;endArrow=block;edgeStyle=elbowEdgeStyle;elbow=vertical;curved=0;rounded=0;" edge="1" parent="1" target="JXOqe9_d9sMP_DMaJgzB-2">
          <mxGeometry x="-0.0004" relative="1" as="geometry">
            <mxPoint x="445" y="1714" as="sourcePoint" />
            <Array as="points">
              <mxPoint x="450" y="1714" />
            </Array>
            <mxPoint x="595" y="1714" as="targetPoint" />
            <mxPoint as="offset" />
          </mxGeometry>
        </mxCell>
        <mxCell id="JXOqe9_d9sMP_DMaJgzB-142" value="DB" style="shape=umlLifeline;perimeter=lifelinePerimeter;whiteSpace=wrap;html=1;container=0;dropTarget=0;collapsible=0;recursiveResize=0;outlineConnect=0;portConstraint=eastwest;newEdgeStyle={&quot;edgeStyle&quot;:&quot;elbowEdgeStyle&quot;,&quot;elbow&quot;:&quot;vertical&quot;,&quot;curved&quot;:0,&quot;rounded&quot;:0};" vertex="1" parent="1">
          <mxGeometry x="1099" y="269" width="61" height="2201" as="geometry" />
        </mxCell>
        <mxCell id="JXOqe9_d9sMP_DMaJgzB-143" value="" style="html=1;points=[];perimeter=orthogonalPerimeter;outlineConnect=0;targetShapes=umlLifeline;portConstraint=eastwest;newEdgeStyle={&quot;edgeStyle&quot;:&quot;elbowEdgeStyle&quot;,&quot;elbow&quot;:&quot;vertical&quot;,&quot;curved&quot;:0,&quot;rounded&quot;:0};" vertex="1" parent="JXOqe9_d9sMP_DMaJgzB-142">
          <mxGeometry x="25.5" y="1454" width="10" height="60" as="geometry" />
        </mxCell>
        <mxCell id="JXOqe9_d9sMP_DMaJgzB-162" value="" style="html=1;points=[];perimeter=orthogonalPerimeter;outlineConnect=0;targetShapes=umlLifeline;portConstraint=eastwest;newEdgeStyle={&quot;edgeStyle&quot;:&quot;elbowEdgeStyle&quot;,&quot;elbow&quot;:&quot;vertical&quot;,&quot;curved&quot;:0,&quot;rounded&quot;:0};" vertex="1" parent="JXOqe9_d9sMP_DMaJgzB-142">
          <mxGeometry x="25.5" y="1921" width="10" height="39" as="geometry" />
        </mxCell>
        <mxCell id="JXOqe9_d9sMP_DMaJgzB-177" value="" style="html=1;points=[];perimeter=orthogonalPerimeter;outlineConnect=0;targetShapes=umlLifeline;portConstraint=eastwest;newEdgeStyle={&quot;edgeStyle&quot;:&quot;elbowEdgeStyle&quot;,&quot;elbow&quot;:&quot;vertical&quot;,&quot;curved&quot;:0,&quot;rounded&quot;:0};" vertex="1" parent="JXOqe9_d9sMP_DMaJgzB-142">
          <mxGeometry x="25.5" y="1610" width="10" height="90" as="geometry" />
        </mxCell>
        <mxCell id="JXOqe9_d9sMP_DMaJgzB-144" value="loadChatData&lt;br&gt;(user)" style="html=1;verticalAlign=bottom;endArrow=block;edgeStyle=elbowEdgeStyle;elbow=vertical;curved=0;rounded=0;" edge="1" parent="1" target="JXOqe9_d9sMP_DMaJgzB-143">
          <mxGeometry x="-0.0015" relative="1" as="geometry">
            <mxPoint x="1050" y="1734" as="sourcePoint" />
            <Array as="points">
              <mxPoint x="1050" y="1734" />
            </Array>
            <mxPoint x="1140" y="1734" as="targetPoint" />
            <mxPoint as="offset" />
          </mxGeometry>
        </mxCell>
        <mxCell id="JXOqe9_d9sMP_DMaJgzB-145" value="loadChatData&lt;br&gt;(user): data" style="html=1;verticalAlign=bottom;endArrow=none;edgeStyle=elbowEdgeStyle;elbow=vertical;curved=0;rounded=0;dashed=1;startArrow=open;startFill=0;endFill=0;" edge="1" parent="1">
          <mxGeometry x="-0.0015" relative="1" as="geometry">
            <mxPoint x="1050" y="1774" as="sourcePoint" />
            <Array as="points">
              <mxPoint x="1050" y="1774" />
            </Array>
            <mxPoint x="1125" y="1774" as="targetPoint" />
            <mxPoint as="offset" />
          </mxGeometry>
        </mxCell>
        <mxCell id="JXOqe9_d9sMP_DMaJgzB-146" value="loadChatData(user): data" style="html=1;verticalAlign=bottom;endArrow=none;edgeStyle=elbowEdgeStyle;elbow=vertical;curved=0;rounded=0;dashed=1;startArrow=open;startFill=0;endFill=0;" edge="1" parent="1">
          <mxGeometry x="-0.0016" relative="1" as="geometry">
            <mxPoint x="445" y="1790" as="sourcePoint" />
            <Array as="points">
              <mxPoint x="450" y="1790" />
            </Array>
            <mxPoint x="1040" y="1790" as="targetPoint" />
            <mxPoint as="offset" />
          </mxGeometry>
        </mxCell>
        <mxCell id="JXOqe9_d9sMP_DMaJgzB-147" value="getUserInput: &quot;deactivate bot&quot;" style="html=1;verticalAlign=bottom;endArrow=open;dashed=1;endSize=8;edgeStyle=elbowEdgeStyle;elbow=vertical;curved=0;rounded=0;" edge="1" parent="1">
          <mxGeometry x="0.2308" relative="1" as="geometry">
            <mxPoint x="275" y="1520" as="targetPoint" />
            <Array as="points">
              <mxPoint x="120" y="1520" />
            </Array>
            <mxPoint x="160" y="1520" as="sourcePoint" />
            <mxPoint as="offset" />
          </mxGeometry>
        </mxCell>
        <mxCell id="JXOqe9_d9sMP_DMaJgzB-149" value="getUserInput: &quot;deactivate bot&quot;" style="html=1;verticalAlign=bottom;endArrow=open;dashed=1;endSize=8;edgeStyle=elbowEdgeStyle;elbow=vertical;curved=0;rounded=0;" edge="1" parent="1">
          <mxGeometry relative="1" as="geometry">
            <mxPoint x="435" y="1536.08" as="targetPoint" />
            <Array as="points" />
            <mxPoint x="285" y="1536.08" as="sourcePoint" />
            <mxPoint as="offset" />
          </mxGeometry>
        </mxCell>
        <mxCell id="JXOqe9_d9sMP_DMaJgzB-151" value="deactivateBot(bot)" style="html=1;verticalAlign=bottom;endArrow=block;edgeStyle=elbowEdgeStyle;elbow=vertical;curved=0;rounded=0;" edge="1" parent="1">
          <mxGeometry relative="1" as="geometry">
            <mxPoint x="445" y="1550" as="sourcePoint" />
            <Array as="points">
              <mxPoint x="450" y="1550" />
            </Array>
            <mxPoint x="595" y="1550" as="targetPoint" />
          </mxGeometry>
        </mxCell>
        <mxCell id="JXOqe9_d9sMP_DMaJgzB-152" value="" style="shape=umlDestroy;whiteSpace=wrap;html=1;strokeWidth=3;targetShapes=umlLifeline;" vertex="1" parent="1">
          <mxGeometry x="865" y="1560" width="30" height="30" as="geometry" />
        </mxCell>
        <mxCell id="JXOqe9_d9sMP_DMaJgzB-153" value="deactivateBot(name)" style="html=1;verticalAlign=bottom;endArrow=none;edgeStyle=elbowEdgeStyle;elbow=vertical;curved=0;rounded=0;dashed=1;endFill=0;" edge="1" parent="1">
          <mxGeometry x="-0.0006" relative="1" as="geometry">
            <mxPoint x="605" y="1574.86" as="sourcePoint" />
            <Array as="points">
              <mxPoint x="630" y="1574.86" />
              <mxPoint x="1040" y="1589.61" />
            </Array>
            <mxPoint x="880" y="1574.86" as="targetPoint" />
            <mxPoint as="offset" />
          </mxGeometry>
        </mxCell>
        <mxCell id="JXOqe9_d9sMP_DMaJgzB-155" value="deactivateBot(bot): output" style="html=1;verticalAlign=bottom;endArrow=none;edgeStyle=elbowEdgeStyle;elbow=vertical;curved=0;rounded=0;dashed=1;startArrow=open;startFill=0;endFill=0;" edge="1" parent="1">
          <mxGeometry relative="1" as="geometry">
            <mxPoint x="445" y="1602.11" as="sourcePoint" />
            <Array as="points">
              <mxPoint x="450" y="1602.11" />
            </Array>
            <mxPoint x="595" y="1602.11" as="targetPoint" />
          </mxGeometry>
        </mxCell>
        <mxCell id="JXOqe9_d9sMP_DMaJgzB-156" value="" style="endArrow=none;html=1;rounded=0;dashed=1;dashPattern=8 8;exitX=0.001;exitY=0.534;exitDx=0;exitDy=0;exitPerimeter=0;entryX=0.999;entryY=0.534;entryDx=0;entryDy=0;entryPerimeter=0;" edge="1" parent="1">
          <mxGeometry width="50" height="50" relative="1" as="geometry">
            <mxPoint x="32.2199999999999" y="1629.9999999999998" as="sourcePoint" />
            <mxPoint x="1139.9999999999998" y="1629.9999999999998" as="targetPoint" />
          </mxGeometry>
        </mxCell>
        <mxCell id="JXOqe9_d9sMP_DMaJgzB-157" value="&lt;div&gt;getUserInput:&amp;nbsp;&lt;br&gt;&quot;exit&quot;&lt;/div&gt;" style="html=1;verticalAlign=bottom;endArrow=open;dashed=1;endSize=8;edgeStyle=elbowEdgeStyle;elbow=vertical;curved=0;rounded=0;" edge="1" parent="1">
          <mxGeometry x="0.2308" relative="1" as="geometry">
            <mxPoint x="275" y="2139.13" as="targetPoint" />
            <Array as="points">
              <mxPoint x="120" y="2139.13" />
            </Array>
            <mxPoint x="160" y="2139.13" as="sourcePoint" />
            <mxPoint as="offset" />
          </mxGeometry>
        </mxCell>
        <mxCell id="JXOqe9_d9sMP_DMaJgzB-158" value="" style="endArrow=none;html=1;rounded=0;dashed=1;dashPattern=8 8;exitX=-0.001;exitY=0.418;exitDx=0;exitDy=0;exitPerimeter=0;entryX=1;entryY=0.377;entryDx=0;entryDy=0;entryPerimeter=0;" edge="1" parent="1">
          <mxGeometry width="50" height="50" relative="1" as="geometry">
            <mxPoint x="20" y="2090" as="sourcePoint" />
            <mxPoint x="1150" y="2090.0370000000003" as="targetPoint" />
          </mxGeometry>
        </mxCell>
        <mxCell id="JXOqe9_d9sMP_DMaJgzB-159" value="&lt;div&gt;getUserInput:&amp;nbsp;&lt;br&gt;&quot;exit&quot;&lt;/div&gt;" style="html=1;verticalAlign=bottom;endArrow=open;dashed=1;endSize=8;edgeStyle=elbowEdgeStyle;elbow=vertical;curved=0;rounded=0;" edge="1" parent="1">
          <mxGeometry x="0.2308" relative="1" as="geometry">
            <mxPoint x="430" y="2169.13" as="targetPoint" />
            <Array as="points">
              <mxPoint x="285" y="2169.13" />
            </Array>
            <mxPoint x="325" y="2169.13" as="sourcePoint" />
            <mxPoint as="offset" />
          </mxGeometry>
        </mxCell>
        <mxCell id="JXOqe9_d9sMP_DMaJgzB-160" value="disconnect()" style="html=1;verticalAlign=bottom;endArrow=block;edgeStyle=elbowEdgeStyle;elbow=vertical;curved=0;rounded=0;" edge="1" parent="1">
          <mxGeometry x="-0.0004" relative="1" as="geometry">
            <mxPoint x="445" y="2189.13" as="sourcePoint" />
            <Array as="points">
              <mxPoint x="450" y="2189.13" />
            </Array>
            <mxPoint x="1040" y="2189.13" as="targetPoint" />
            <mxPoint as="offset" />
          </mxGeometry>
        </mxCell>
        <mxCell id="JXOqe9_d9sMP_DMaJgzB-161" value="" style="html=1;points=[];perimeter=orthogonalPerimeter;outlineConnect=0;targetShapes=umlLifeline;portConstraint=eastwest;newEdgeStyle={&quot;edgeStyle&quot;:&quot;elbowEdgeStyle&quot;,&quot;elbow&quot;:&quot;vertical&quot;,&quot;curved&quot;:0,&quot;rounded&quot;:0};" vertex="1" parent="1">
          <mxGeometry x="1040" y="2179.13" width="10" height="50" as="geometry" />
        </mxCell>
        <mxCell id="JXOqe9_d9sMP_DMaJgzB-163" value="disconnect()" style="html=1;verticalAlign=bottom;endArrow=open;edgeStyle=elbowEdgeStyle;elbow=vertical;curved=0;rounded=0;endFill=0;" edge="1" parent="1">
          <mxGeometry x="-0.0004" relative="1" as="geometry">
            <mxPoint x="1050" y="2209.13" as="sourcePoint" />
            <Array as="points">
              <mxPoint x="1055" y="2209.13" />
            </Array>
            <mxPoint x="1124.5" y="2209.13" as="targetPoint" />
            <mxPoint as="offset" />
          </mxGeometry>
        </mxCell>
        <mxCell id="JXOqe9_d9sMP_DMaJgzB-165" value="disconnect(): output&amp;nbsp;" style="html=1;verticalAlign=bottom;endArrow=none;edgeStyle=elbowEdgeStyle;elbow=vertical;curved=0;rounded=0;dashed=1;startArrow=open;startFill=0;endFill=0;" edge="1" parent="1">
          <mxGeometry x="-0.0016" relative="1" as="geometry">
            <mxPoint x="445" y="2219.13" as="sourcePoint" />
            <Array as="points">
              <mxPoint x="450" y="2219.13" />
            </Array>
            <mxPoint x="1040" y="2219.13" as="targetPoint" />
            <mxPoint as="offset" />
          </mxGeometry>
        </mxCell>
        <mxCell id="JXOqe9_d9sMP_DMaJgzB-166" value="displayMessage: output" style="html=1;verticalAlign=bottom;endArrow=none;edgeStyle=elbowEdgeStyle;elbow=vertical;curved=0;rounded=0;startArrow=open;startFill=0;endFill=0;" edge="1" parent="1">
          <mxGeometry relative="1" as="geometry">
            <mxPoint x="285" y="2239.13" as="sourcePoint" />
            <Array as="points">
              <mxPoint x="339.69" y="2239.13" />
            </Array>
            <mxPoint x="435" y="2239.13" as="targetPoint" />
          </mxGeometry>
        </mxCell>
        <mxCell id="JXOqe9_d9sMP_DMaJgzB-167" value="output" style="html=1;verticalAlign=bottom;endArrow=none;edgeStyle=elbowEdgeStyle;elbow=vertical;curved=0;rounded=0;startArrow=open;startFill=0;endFill=0;" edge="1" parent="1">
          <mxGeometry relative="1" as="geometry">
            <mxPoint x="125" y="2259.13" as="sourcePoint" />
            <Array as="points">
              <mxPoint x="179.69" y="2259.13" />
            </Array>
            <mxPoint x="275" y="2259.13" as="targetPoint" />
          </mxGeometry>
        </mxCell>
        <mxCell id="JXOqe9_d9sMP_DMaJgzB-168" value="displayMessage" style="html=1;verticalAlign=bottom;endArrow=none;edgeStyle=elbowEdgeStyle;elbow=vertical;curved=0;rounded=0;startArrow=open;startFill=0;endFill=0;" edge="1" parent="1">
          <mxGeometry x="0.0023" relative="1" as="geometry">
            <mxPoint x="285" y="2279.13" as="sourcePoint" />
            <Array as="points">
              <mxPoint x="339.69" y="2279.13" />
            </Array>
            <mxPoint x="435" y="2279.13" as="targetPoint" />
            <mxPoint as="offset" />
          </mxGeometry>
        </mxCell>
        <mxCell id="JXOqe9_d9sMP_DMaJgzB-170" value="&quot;Exiting...&quot;" style="html=1;verticalAlign=bottom;endArrow=none;edgeStyle=elbowEdgeStyle;elbow=vertical;curved=0;rounded=0;startArrow=open;startFill=0;endFill=0;" edge="1" parent="1">
          <mxGeometry x="0.0027" relative="1" as="geometry">
            <mxPoint x="125" y="2289.13" as="sourcePoint" />
            <Array as="points">
              <mxPoint x="179.69" y="2289.13" />
            </Array>
            <mxPoint x="275" y="2289.13" as="targetPoint" />
            <mxPoint as="offset" />
          </mxGeometry>
        </mxCell>
        <mxCell id="JXOqe9_d9sMP_DMaJgzB-174" value="alt" style="shape=umlFrame;whiteSpace=wrap;html=1;pointerEvents=0;" vertex="1" parent="1">
          <mxGeometry x="30" y="1060" width="1110" height="760" as="geometry" />
        </mxCell>
        <mxCell id="JXOqe9_d9sMP_DMaJgzB-175" value="" style="html=1;points=[];perimeter=orthogonalPerimeter;outlineConnect=0;targetShapes=umlLifeline;portConstraint=eastwest;newEdgeStyle={&quot;edgeStyle&quot;:&quot;elbowEdgeStyle&quot;,&quot;elbow&quot;:&quot;vertical&quot;,&quot;curved&quot;:0,&quot;rounded&quot;:0};" vertex="1" parent="1">
          <mxGeometry x="1040" y="1870" width="10" height="120" as="geometry" />
        </mxCell>
        <mxCell id="JXOqe9_d9sMP_DMaJgzB-176" value="persistChat(user, input, output)" style="html=1;verticalAlign=bottom;endArrow=block;edgeStyle=elbowEdgeStyle;elbow=vertical;curved=0;rounded=0;" edge="1" parent="1">
          <mxGeometry x="-0.0004" relative="1" as="geometry">
            <mxPoint x="445" y="1880" as="sourcePoint" />
            <Array as="points">
              <mxPoint x="450" y="1880" />
            </Array>
            <mxPoint x="1040" y="1880" as="targetPoint" />
            <mxPoint as="offset" />
          </mxGeometry>
        </mxCell>
        <mxCell id="JXOqe9_d9sMP_DMaJgzB-179" value="persistChat&lt;br&gt;(user, prompt,&lt;br&gt;chat)" style="html=1;verticalAlign=bottom;endArrow=block;edgeStyle=elbowEdgeStyle;elbow=vertical;curved=0;rounded=0;" edge="1" parent="1">
          <mxGeometry x="-0.0015" relative="1" as="geometry">
            <mxPoint x="1050" y="1889.77" as="sourcePoint" />
            <Array as="points">
              <mxPoint x="1050" y="1889.77" />
            </Array>
            <mxPoint x="1125" y="1889.77" as="targetPoint" />
            <mxPoint as="offset" />
          </mxGeometry>
        </mxCell>
        <mxCell id="JXOqe9_d9sMP_DMaJgzB-180" value="&lt;div&gt;persistChat&lt;br&gt;(...):&lt;/div&gt;&lt;div&gt;db_output&lt;/div&gt;" style="html=1;verticalAlign=bottom;endArrow=none;edgeStyle=elbowEdgeStyle;elbow=vertical;curved=0;rounded=0;dashed=1;startArrow=open;startFill=0;endFill=0;" edge="1" parent="1">
          <mxGeometry x="-0.0015" relative="1" as="geometry">
            <mxPoint x="1050" y="1960" as="sourcePoint" />
            <Array as="points">
              <mxPoint x="1050" y="1960" />
            </Array>
            <mxPoint x="1125" y="1960" as="targetPoint" />
            <mxPoint as="offset" />
          </mxGeometry>
        </mxCell>
        <mxCell id="JXOqe9_d9sMP_DMaJgzB-181" value="persistChat(user, input, output): db_output" style="html=1;verticalAlign=bottom;endArrow=none;edgeStyle=elbowEdgeStyle;elbow=vertical;curved=0;rounded=0;dashed=1;startArrow=open;startFill=0;endFill=0;" edge="1" parent="1">
          <mxGeometry x="-0.0016" relative="1" as="geometry">
            <mxPoint x="445" y="1980" as="sourcePoint" />
            <Array as="points">
              <mxPoint x="450" y="1980" />
            </Array>
            <mxPoint x="1040" y="1980" as="targetPoint" />
            <mxPoint as="offset" />
          </mxGeometry>
        </mxCell>
        <mxCell id="JXOqe9_d9sMP_DMaJgzB-182" value="displayMessage: output" style="html=1;verticalAlign=bottom;endArrow=none;edgeStyle=elbowEdgeStyle;elbow=vertical;curved=0;rounded=0;startArrow=open;startFill=0;endFill=0;" edge="1" parent="1">
          <mxGeometry relative="1" as="geometry">
            <mxPoint x="285" y="2000" as="sourcePoint" />
            <Array as="points">
              <mxPoint x="339.69" y="2000" />
            </Array>
            <mxPoint x="435" y="2000" as="targetPoint" />
          </mxGeometry>
        </mxCell>
        <mxCell id="JXOqe9_d9sMP_DMaJgzB-183" value="output" style="html=1;verticalAlign=bottom;endArrow=none;edgeStyle=elbowEdgeStyle;elbow=vertical;curved=0;rounded=0;startArrow=open;startFill=0;endFill=0;exitX=1;exitY=0.867;exitDx=0;exitDy=0;exitPerimeter=0;" edge="1" parent="1" source="JXOqe9_d9sMP_DMaJgzB-8">
          <mxGeometry relative="1" as="geometry">
            <mxPoint x="125" y="2020" as="sourcePoint" />
            <Array as="points">
              <mxPoint x="179.69" y="2020" />
            </Array>
            <mxPoint x="275" y="2020" as="targetPoint" />
          </mxGeometry>
        </mxCell>
        <mxCell id="JXOqe9_d9sMP_DMaJgzB-184" value="displayMessage: db_output" style="html=1;verticalAlign=bottom;endArrow=none;edgeStyle=elbowEdgeStyle;elbow=vertical;curved=0;rounded=0;startArrow=open;startFill=0;endFill=0;" edge="1" parent="1">
          <mxGeometry relative="1" as="geometry">
            <mxPoint x="285" y="2050" as="sourcePoint" />
            <Array as="points">
              <mxPoint x="339.69" y="2050" />
            </Array>
            <mxPoint x="435" y="2050" as="targetPoint" />
          </mxGeometry>
        </mxCell>
        <mxCell id="JXOqe9_d9sMP_DMaJgzB-185" value="db_output" style="html=1;verticalAlign=bottom;endArrow=none;edgeStyle=elbowEdgeStyle;elbow=vertical;curved=0;rounded=0;startArrow=open;startFill=0;endFill=0;" edge="1" parent="1" source="JXOqe9_d9sMP_DMaJgzB-8">
          <mxGeometry relative="1" as="geometry">
            <mxPoint x="125" y="2070" as="sourcePoint" />
            <Array as="points">
              <mxPoint x="179.69" y="2070" />
            </Array>
            <mxPoint x="275" y="2070" as="targetPoint" />
          </mxGeometry>
        </mxCell>
        <mxCell id="JXOqe9_d9sMP_DMaJgzB-186" value="" style="shape=umlDestroy;whiteSpace=wrap;html=1;strokeWidth=3;targetShapes=umlLifeline;" vertex="1" parent="1">
          <mxGeometry x="425" y="2340" width="30" height="30" as="geometry" />
        </mxCell>
        <mxCell id="JXOqe9_d9sMP_DMaJgzB-193" value="" style="shape=umlDestroy;whiteSpace=wrap;html=1;strokeWidth=3;targetShapes=umlLifeline;" vertex="1" parent="1">
          <mxGeometry x="265" y="2340" width="30" height="30" as="geometry" />
        </mxCell>
        <mxCell id="JXOqe9_d9sMP_DMaJgzB-194" value="" style="shape=umlDestroy;whiteSpace=wrap;html=1;strokeWidth=3;targetShapes=umlLifeline;" vertex="1" parent="1">
          <mxGeometry x="585" y="2340" width="30" height="30" as="geometry" />
        </mxCell>
        <mxCell id="JXOqe9_d9sMP_DMaJgzB-195" value="" style="shape=umlDestroy;whiteSpace=wrap;html=1;strokeWidth=3;targetShapes=umlLifeline;" vertex="1" parent="1">
          <mxGeometry x="745" y="2340" width="30" height="30" as="geometry" />
        </mxCell>
        <mxCell id="JXOqe9_d9sMP_DMaJgzB-196" value="" style="shape=umlDestroy;whiteSpace=wrap;html=1;strokeWidth=3;targetShapes=umlLifeline;" vertex="1" parent="1">
          <mxGeometry x="1030" y="2340" width="30" height="30" as="geometry" />
        </mxCell>
        <mxCell id="JXOqe9_d9sMP_DMaJgzB-199" value="" style="endArrow=none;dashed=1;html=1;rounded=0;" edge="1" parent="1">
          <mxGeometry width="50" height="50" relative="1" as="geometry">
            <mxPoint x="114.6" y="2391.326470588235" as="sourcePoint" />
            <mxPoint x="114.69000000000003" y="2290" as="targetPoint" />
          </mxGeometry>
        </mxCell>
      </root>
    </mxGraphModel>
  </diagram>
</mxfile>
